<svg width="18" height="18" viewBox="0 0 18 18" xmlns="http://www.w3.org/2000/svg">
<path d="M5.90516 1L2.93578 6.33114H1.79986C1.67691 6.33128 1.55563 6.36047 1.44545 6.41644C1.33526 6.47241 1.23911 6.55366 1.16447 6.65389C1.08982 6.75413 1.03867 6.87065 1.01499 6.99443C0.991312 7.1182 0.995732 7.2459 1.02791 7.3677L3.26695 15.7903C3.35976 16.1375 3.56106 16.4439 3.83995 16.6624C4.11884 16.8809 4.45992 16.9995 4.81084 17H13.1886C13.907 17 14.5421 16.5035 14.7325 15.7895L16.9716 7.3668C17.0041 7.2451 17.0088 7.1172 16.9852 6.99325C16.9616 6.8693 16.9104 6.75263 16.8356 6.65235C16.7608 6.55207 16.6644 6.4709 16.5539 6.41517C16.4434 6.35945 16.3219 6.3307 16.1988 6.33114H15.0629L12.0935 1L10.7048 1.81412L13.2206 6.33114H4.77804L7.2939 1.81412L5.90516 1ZM10.5992 9.6139H12.1991V13.7173H10.5992V9.6139ZM5.79957 9.6139H7.3995V13.7173H5.79957V9.6139Z" />
</svg>
