<svg width="18" height="18" viewBox="0 0 18 18" xmlns="http://www.w3.org/2000/svg">
<path fill-rule="evenodd" clip-rule="evenodd" d="M17.0005 4.19014C17.0266 4.17598 17.0483 4.15572 17.0633 4.13137C17.0784 4.10701 17.0863 4.07942 17.0863 4.05133C17.0863 4.02325 17.0784 3.99565 17.0633 3.9713C17.0483 3.94695 17.0266 3.92668 17.0005 3.91253L10.3915 0.34743C9.9687 0.11985 9.4886 0 8.9998 0C8.511 0 8.0309 0.11985 7.608 0.34743L1.00039 3.91253C0.974263 3.92668 0.952583 3.94695 0.937523 3.9713C0.922453 3.99565 0.914533 4.02325 0.914533 4.05133C0.914533 4.07942 0.922453 4.10701 0.937523 4.13137C0.952583 4.15572 0.974263 4.17598 1.00039 4.19014L8.9135 8.5121C8.9401 8.5267 8.9704 8.5344 9.0013 8.5344C9.0322 8.5344 9.0625 8.5267 9.0891 8.5121L17.0005 4.19014ZM0.259623 5.2833C0.233233 5.26915 0.203283 5.26172 0.172803 5.26176C0.142323 5.26181 0.112403 5.26933 0.0860534 5.28355C0.0597134 5.29778 0.0378833 5.31822 0.0227733 5.34279C0.0076633 5.36737 -0.000186631 5.39521 3.36886e-06 5.42351V12.4095C0.000663369 12.7461 0.0962233 13.0768 0.277193 13.3685C0.458163 13.6602 0.718233 13.9029 1.03154 14.0723L8.0481 17.9785C8.0744 17.9926 8.1042 18 8.1346 18C8.1649 18 8.1948 17.9926 8.2211 17.9785C8.2474 17.9644 8.2692 17.9442 8.2844 17.9198C8.2996 17.8954 8.3077 17.8677 8.3077 17.8395V9.7342C8.3077 9.7061 8.2997 9.6784 8.2845 9.654C8.2693 9.6296 8.2474 9.6093 8.2212 9.5952L0.259623 5.2833ZM9.6923 17.8374V9.7623C9.6924 9.7342 9.7005 9.7066 9.7157 9.6823C9.7308 9.658 9.7526 9.6378 9.7788 9.6237L17.7404 5.28487C17.7667 5.27079 17.7964 5.26337 17.8268 5.26334C17.8571 5.26332 17.8869 5.27069 17.9132 5.28473C17.9395 5.29877 17.9614 5.31898 17.9766 5.34333C17.9918 5.36768 17.9999 5.39532 18 5.42348V12.4094C17.9989 12.7458 17.9031 13.076 17.7221 13.3674C17.5411 13.6587 17.2811 13.901 16.968 14.0703L9.9519 17.9764C9.9256 17.9905 9.8958 17.998 9.8654 17.998C9.8351 17.998 9.8052 17.9906 9.7789 17.9765C9.7526 17.9624 9.7308 17.9421 9.7156 17.9177C9.7004 17.8933 9.6923 17.8656 9.6923 17.8374Z" />
</svg>
