<svg width="18" height="18" viewBox="0 0 18 18" xmlns="http://www.w3.org/2000/svg">
<path fill-rule="evenodd" clip-rule="evenodd" d="M15.7064 13.3069L11.2128 11.8113C10.634 11.6282 10.2596 11.1093 10.3277 10.5905C11.4851 9.8274 12.9149 8.4845 12.9149 6.92789V5.09659C12.9149 5.09659 12.5745 4.08938 12.234 3.87573C11.8936 3.66208 11.3149 3.11269 10.8723 2.65487C10.4298 2.19705 10.2596 2.136 10.1915 1.73922C10.1234 1.34244 9.2723 0.732012 9.1702 1.12879C9.0681 1.52557 8.217 1.67818 7.4681 2.04444C6.71915 2.4107 6.34468 2.44122 6.10638 2.96009C5.86808 3.47895 5.08511 4.85242 5.08511 6.01224V6.92789C5.08511 8.4845 6.51489 9.8274 7.6383 10.56C7.6723 11.1093 7.2638 11.5977 6.68511 11.7503L6.44681 11.8113L2.22553 13.5816C1.68085 13.8258 1.17021 14.3141 1 14.8635V17H17V14.8635C16.7957 14.3141 16.3191 13.5205 15.7064 13.3069Z" />
</svg>
