<svg width="24" height="24" viewBox="0 0 24 24" xmlns="http://www.w3.org/2000/svg">
<path d="M8.90516 4L5.93578 9.33114H4.79986C4.67691 9.33128 4.55563 9.36047 4.44545 9.41644C4.33526 9.47241 4.23911 9.55366 4.16447 9.65389C4.08982 9.75413 4.03867 9.87065 4.01499 9.99443C3.99131 10.1182 3.99573 10.2459 4.02791 10.3677L6.26695 18.7903C6.35976 19.1375 6.56106 19.4439 6.83995 19.6624C7.11884 19.8809 7.45992 19.9995 7.81084 20H16.1886C16.907 20 17.5421 19.5035 17.7325 18.7895L19.9716 10.3668C20.0041 10.2451 20.0088 10.1172 19.9852 9.99325C19.9616 9.8693 19.9104 9.75263 19.8356 9.65235C19.7608 9.55207 19.6644 9.4709 19.5539 9.41517C19.4434 9.35945 19.3219 9.3307 19.1988 9.33114H18.0629L15.0935 4L13.7048 4.81412L16.2206 9.33114H7.77804L10.2939 4.81412L8.90516 4ZM13.5992 12.6139H15.1991V16.7173H13.5992V12.6139ZM8.79957 12.6139H10.3995V16.7173H8.79957V12.6139Z" />
</svg>
