<svg width="14" height="14" viewBox="0 0 14 14" xmlns="http://www.w3.org/2000/svg">
<path d="M8.28261 7.0002L13.7339 1.5486C14.0887 1.19399 14.0887 0.620648 13.7339 0.266044C13.3793 -0.0885594 12.806 -0.0885594 12.4514 0.266044L6.99992 5.71764L1.5486 0.266044C1.19384 -0.0885594 0.620668 -0.0885594 0.266072 0.266044C-0.0886906 0.620648 -0.0886906 1.19399 0.266072 1.5486L5.71739 7.0002L0.266072 12.4518C-0.0886906 12.8064 -0.0886906 13.3797 0.266072 13.7343C0.442789 13.9112 0.675145 14.0001 0.907335 14.0001C1.13953 14.0001 1.37172 13.9112 1.5486 13.7343L6.99992 8.28275L12.4514 13.7343C12.6283 13.9112 12.8605 14.0001 13.0927 14.0001C13.3249 14.0001 13.557 13.9112 13.7339 13.7343C14.0887 13.3797 14.0887 12.8064 13.7339 12.4518L8.28261 7.0002Z" />
</svg>
