<svg viewBox="0 0 18 18" fill="currentColor" xmlns="http://www.w3.org/2000/svg">
<path d="M17.4375 2.25H0.5625C0.413316 2.25 0.270242 2.30926 0.164752 2.41475C0.0592632 2.52024 0 2.66332 0 2.8125L0 14.625C0 14.7742 0.0592632 14.9173 0.164752 15.0227C0.270242 15.1282 0.413316 15.1875 0.5625 15.1875H17.4375C17.5867 15.1875 17.7298 15.1282 17.8352 15.0227C17.9407 14.9173 18 14.7742 18 14.625V2.8125C18 2.66332 17.9407 2.52024 17.8352 2.41475C17.7298 2.30926 17.5867 2.25 17.4375 2.25ZM12.9122 9.30656C12.8046 9.21441 12.6662 9.16626 12.5246 9.17172C12.383 9.17719 12.2487 9.23588 12.1486 9.33606C12.0484 9.43624 11.9897 9.57053 11.9842 9.7121C11.9788 9.85366 12.0269 9.99208 12.1191 10.0997L16.0791 14.0625H1.92094L5.88094 10.0997C5.97309 9.99208 6.02124 9.85366 6.01578 9.7121C6.01031 9.57053 5.95162 9.43624 5.85144 9.33606C5.75126 9.23588 5.61697 9.17719 5.47541 9.17172C5.33384 9.16626 5.19542 9.21441 5.08781 9.30656L1.125 13.2666V4.10063L8.6175 11.0531C8.72151 11.1496 8.85814 11.2032 9 11.2032C9.14186 11.2032 9.27849 11.1496 9.3825 11.0531L16.875 4.10063V13.2666L12.9122 9.30656ZM1.99687 3.375H16.0031L9 9.87469L1.99687 3.375Z"/>
</svg>
