<svg width="18" height="18" viewBox="0 0 18 18" xmlns="http://www.w3.org/2000/svg">
<path d="M16.8751 7.20281H15.6713C15.4841 7.19469 15.3032 7.13332 15.1496 7.02591C14.9961 6.91849 14.8765 6.7695 14.8047 6.59642C14.7329 6.42335 14.712 6.23339 14.7445 6.04886C14.7769 5.86433 14.8614 5.69289 14.9879 5.55469L15.8316 4.71094C15.8711 4.67196 15.9024 4.62554 15.9238 4.57436C15.9452 4.52319 15.9562 4.46827 15.9562 4.41281C15.9562 4.35735 15.9452 4.30244 15.9238 4.25126C15.9024 4.20009 15.8711 4.15367 15.8316 4.11469L13.8938 2.16C13.813 2.08427 13.7064 2.04212 13.5957 2.04212C13.485 2.04212 13.3784 2.08427 13.2976 2.16L12.4538 3.00375C12.3166 3.13453 12.1433 3.22127 11.9564 3.25285C11.7695 3.28442 11.5774 3.25938 11.4048 3.18094C11.2305 3.11362 11.0803 2.99569 10.9735 2.84232C10.8667 2.68896 10.8083 2.50716 10.8057 2.32031V1.125C10.8057 1.01311 10.7613 0.905806 10.6821 0.826689C10.603 0.747572 10.4957 0.703125 10.3838 0.703125H7.62477C7.51288 0.703125 7.40558 0.747572 7.32646 0.826689C7.24734 0.905806 7.2029 1.01311 7.2029 1.125V2.32875C7.19478 2.51594 7.13341 2.69692 7.02599 2.85044C6.91858 3.00395 6.76958 3.12363 6.59651 3.1954C6.42344 3.26717 6.23347 3.28805 6.04894 3.2556C5.86441 3.22314 5.69297 3.1387 5.55477 3.01219L4.71102 2.16844C4.63192 2.08943 4.52469 2.04506 4.4129 2.04506C4.3011 2.04506 4.19387 2.08943 4.11477 2.16844L2.16008 4.10625C2.12063 4.14523 2.0893 4.19165 2.06792 4.24283C2.04654 4.294 2.03553 4.34891 2.03553 4.40438C2.03553 4.45984 2.04654 4.51475 2.06792 4.56592C2.0893 4.6171 2.12063 4.66352 2.16008 4.7025L3.00383 5.54625C3.13292 5.68093 3.2194 5.85072 3.25242 6.03433C3.28544 6.21794 3.26354 6.40722 3.18946 6.57844V6.59531C3.12182 6.76941 3.00381 6.9194 2.85051 7.0261C2.69722 7.13281 2.51559 7.1914 2.32883 7.19438H1.12508C1.0132 7.19438 0.905891 7.23882 0.826774 7.31794C0.747657 7.39706 0.703209 7.50436 0.703209 7.61625V10.3669C0.702087 10.423 0.71217 10.4787 0.732868 10.5309C0.753566 10.5831 0.784464 10.6306 0.823751 10.6707C0.863038 10.7107 0.909925 10.7426 0.961667 10.7643C1.01341 10.786 1.06897 10.7972 1.12508 10.7972H2.32883C2.51602 10.8053 2.69701 10.8667 2.85052 10.9741C3.00404 11.0815 3.12371 11.2305 3.19548 11.4036C3.26725 11.5766 3.28813 11.7666 3.25568 11.9511C3.22323 12.1357 3.13878 12.3071 3.01227 12.4453L2.16852 13.2891C2.12907 13.328 2.09774 13.3745 2.07636 13.4256C2.05498 13.4768 2.04397 13.5317 2.04397 13.5872C2.04397 13.6427 2.05498 13.6976 2.07636 13.7487C2.09774 13.7999 2.12907 13.8463 2.16852 13.8853L4.11477 15.8316C4.19557 15.9073 4.30216 15.9494 4.4129 15.9494C4.52364 15.9494 4.63023 15.9073 4.71102 15.8316L5.55477 14.9878C5.69203 14.857 5.86526 14.7703 6.05219 14.7387C6.23913 14.7071 6.43124 14.7322 6.60383 14.8106C6.77815 14.8779 6.92834 14.9959 7.0351 15.1492C7.14186 15.3026 7.20029 15.4844 7.2029 15.6713V16.875C7.2029 16.9869 7.24734 17.0942 7.32646 17.1733C7.40558 17.2524 7.51288 17.2969 7.62477 17.2969H10.3754C10.4873 17.2969 10.5946 17.2524 10.6737 17.1733C10.7528 17.0942 10.7973 16.9869 10.7973 16.875V15.6713C10.8054 15.4841 10.8668 15.3031 10.9742 15.1496C11.0816 14.996 11.2306 14.8764 11.4037 14.8046C11.5767 14.7328 11.7667 14.712 11.9512 14.7444C12.1358 14.7769 12.3072 14.8613 12.4454 14.9878L13.2891 15.8316C13.3682 15.9106 13.4755 15.9549 13.5873 15.9549C13.6991 15.9549 13.8063 15.9106 13.8854 15.8316L15.8316 13.8853C15.8711 13.8463 15.9024 13.7999 15.9238 13.7487C15.9452 13.6976 15.9562 13.6427 15.9562 13.5872C15.9562 13.5317 15.9452 13.4768 15.9238 13.4256C15.9024 13.3745 15.8711 13.328 15.8316 13.2891L14.9879 12.4453C14.8594 12.3121 14.773 12.1439 14.7395 11.9618C14.7059 11.7798 14.7268 11.5918 14.7995 11.4216C14.8005 11.4132 14.8005 11.4047 14.7995 11.3962C14.8671 11.2221 14.9851 11.0722 15.1384 10.9655C15.2917 10.8588 15.4733 10.8002 15.6601 10.7972H16.8751C16.987 10.7972 17.0943 10.7527 17.1734 10.6736C17.2525 10.5945 17.297 10.4872 17.297 10.3753V7.62469C17.297 7.5128 17.2525 7.40549 17.1734 7.32638C17.0943 7.24726 16.987 7.20281 16.8751 7.20281ZM9.00008 12.6366C8.28084 12.6366 7.57775 12.4233 6.97972 12.0237C6.38169 11.6241 5.91558 11.0561 5.64034 10.3917C5.3651 9.72716 5.29308 8.99597 5.4334 8.29054C5.57372 7.58512 5.92006 6.93714 6.42865 6.42856C6.93723 5.91998 7.5852 5.57363 8.29063 5.43331C8.99605 5.293 9.72724 5.36501 10.3917 5.64025C11.0562 5.9155 11.6242 6.3816 12.0238 6.97963C12.4234 7.57766 12.6366 8.28076 12.6366 9C12.6359 9.96425 12.2525 10.8888 11.5707 11.5706C10.8889 12.2524 9.96433 12.6358 9.00008 12.6366Z" fill="currentColor"/>
</svg>
