<svg width="36" height="32" viewBox="0 0 36 32" xmlns="http://www.w3.org/2000/svg">
<path fill-rule="evenodd" clip-rule="evenodd" d="M18.7972 19.7639C18.7972 19.0457 18.9217 19.1521 19.4445 18.6467C20.042 18.0615 20.1167 18.1147 20.2412 16.8645C20.4404 15.0025 21.6852 15.2685 22.3574 16.5453C22.5566 16.9177 22.2329 17.5561 22.7557 17.6625C23.403 17.7955 23.8263 17.9019 23.7018 18.5935C23.5026 19.6043 22.0088 20.5087 24.1499 20.6417C25.1707 20.6949 24.4736 19.8171 24.8221 19.4447C25.2454 18.9925 25.8927 19.6043 25.7433 19.9501C25.1956 21.1737 26.1167 22.1845 27.3366 21.4397C28.2578 20.8811 27.3117 20.8545 27.4362 20.1363C27.6354 19.0457 28.4072 18.0083 29.2537 19.2585C30.374 20.9077 30.6976 16.9975 31.5939 18.8329C31.7931 19.2319 31.6935 19.8969 31.8927 20.6151C32.3657 22.2377 34.208 22.1579 34.3325 20.5087C34.6561 20.1895 34.457 20.2959 34.5566 19.9235C34.7059 19.3649 35.3781 20.4289 35.7267 19.4181C36.374 17.5029 35.6022 18.1945 34.4072 17.0773C34.1582 16.8379 34.3574 16.4655 34.4819 16.2527C34.8553 15.6143 34.9798 14.6301 34.5815 14.5503C34.2329 14.4705 33.9839 14.6567 34.0088 14.2311C34.0586 13.7523 34.208 13.4597 33.7599 13.4065C33.4611 13.3799 33.1624 13.3799 32.9632 13.5927C32.8138 13.7789 32.764 13.8055 32.5898 13.5395C32.3408 13.1937 32.3408 12.6351 32.5898 12.3957C32.8138 12.1829 33.2122 12.2361 33.486 12.3691C33.7848 12.5287 33.2371 12.7681 34.1831 12.8213C34.9051 12.8479 35.5026 12.3425 34.8802 11.8903C34.4072 11.5179 35.1043 11.1987 34.3574 11.2253C33.8097 11.2253 33.5109 11.3051 33.5109 10.6933C33.5358 9.70907 34.2329 10.7997 33.9839 9.78887C33.8844 9.33667 33.7101 8.80466 33.2371 9.04406C32.9881 9.17706 32.7391 9.28347 32.54 9.54947C32.3159 9.81547 32.1167 9.84207 31.8429 9.36327C31.569 8.91106 31.5441 8.77806 32.1167 8.35246C32.5649 8.00666 32.6146 7.39485 32.3159 7.42145C31.6935 7.44805 30.2246 7.58105 30.1748 7.15545C30.125 6.72985 29.9508 6.59685 29.3532 6.86285C29.179 6.94265 28.9549 7.02245 28.9051 6.86285C28.7806 6.57025 28.8304 6.57025 28.457 6.46385C27.6354 6.19785 27.6603 6.03825 28.6064 5.39984C28.8055 5.26684 29.179 5.00084 28.681 4.92104C28.457 4.89444 28.1582 4.86784 28.0835 4.65504C27.9591 4.28263 27.9093 3.43143 27.4611 3.29843C26.54 3.03243 26.7889 1.86202 26.5898 2.10142C26.4155 2.28762 26.5649 2.66002 26.2412 2.20782C26.1416 2.04822 25.9922 1.88862 25.8927 2.02162C25.5939 2.39402 25.6437 2.47382 25.32 2.12802C24.9217 1.72902 24.0005 0.771413 23.7516 1.01081C23.5026 1.25022 23.403 1.43642 23.179 1.17042C22.6312 0.532011 22.8304 1.48962 22.1333 1.09061C21.9342 0.984214 21.7101 0.851213 21.6354 1.01081C21.4611 1.27682 21.4113 1.43642 21.2122 1.17042C21.0628 0.957614 21.0877 0.26601 20.7889 0.39901C20.3408 0.611812 19.6437 0.904414 19.9176 1.27682C20.6644 2.02162 19.6188 1.56942 19.2703 1.86202C18.7723 2.28762 18.8719 1.80882 18.5981 0.904414C18.4736 0.505411 18.4487 0.026608 18.1748 0.34581C18.0254 0.532011 17.9508 0.611812 17.652 0.611812C17.0047 0.638412 17.3034 0.824613 16.8304 0.877813C16.4072 0.904414 16.3574 1.25022 16.2329 0.744813C15.7848 -0.930998 14.9632 0.798013 14.7142 0.638412C14.3408 0.425611 13.818 1.48962 13.2454 0.718212C13.0462 0.452211 12.7225 0.159609 12.5732 0.638412C12.4487 1.09061 12.5981 1.40982 12.0254 1.38322C11.5524 1.35662 11.1292 2.12802 11.1541 2.58022C11.1541 2.81963 11.179 3.05903 11.179 3.29843C11.2039 4.09643 9.75992 2.63342 8.91345 3.51123C8.16656 4.30923 8.63959 3.88363 7.39477 4.25603C6.99643 4.38904 6.67278 4.70824 6.92174 4.94764C7.12091 5.13384 7.1956 5.32004 6.87195 5.50624C6.47361 5.74564 5.8512 6.19785 6.24954 6.51705C6.5483 6.75645 6.82216 6.94265 6.37403 7.31505C5.97569 7.66086 5.55245 7.98006 5.02963 7.66085C4.50681 7.34165 3.43627 7.60766 3.53585 8.21946C3.68523 9.25686 3.36158 9.07066 2.54 9.36327C1.39477 9.84207 1.46946 11.3317 2.06697 12.2361C2.34083 12.6617 2.36573 13.0075 1.49436 12.9809C0.249543 12.9543 -0.422656 12.9277 0.249543 14.8163C0.374025 15.1621 0.47361 15.4547 0.324232 15.8537C-0.248382 17.3433 1.29519 16.9975 1.27029 17.4763C1.27029 18.0615 1.17071 18.0083 1.74332 18.2743C2.83876 18.8063 3.2371 19.7107 4.28274 19.4447C7.14581 18.7797 5.40307 22.0515 6.64788 21.0407C8.21635 19.7639 7.94249 21.8919 8.71428 21.1205C9.73502 20.1097 9.63544 21.3599 10.9549 21.0673C13.7682 20.4555 9.08772 17.8753 12.4985 17.7955C13.2205 17.7689 13.1707 18.3275 13.7184 17.8487C15.7101 16.0931 16.6561 18.2477 16.93 20.7215C17.1292 22.5037 16.8553 24.4722 16.8802 25.2968C16.9051 26.015 16.6561 25.882 16.3076 26.4938C15.7848 27.3716 14.9134 28.6484 16.2578 28.1164C17.1292 27.7706 17.7516 28.4888 17.3034 28.808C16.7806 29.207 16.3823 28.808 15.959 28.9942C15.3615 29.2602 14.1167 30.1912 14.6893 29.4198C15.2122 28.7282 15.5856 28.3292 14.5898 28.8612C13.4694 29.473 12.4736 29.6858 11.2039 29.7124C10.3325 29.739 9.2371 29.7124 8.49021 29.7656C8.01718 29.7922 7.51925 30.005 7.54415 30.138C7.54415 30.1912 8.39062 30.4306 8.51511 30.4838C9.61054 30.8828 10.2827 30.537 11.5773 30.8828C12.2744 31.069 12.8221 31.4414 13.5192 31.1488C15.9342 30.2178 12.1001 32.6384 14.1914 31.8138C14.6147 31.6276 15.0877 31.4414 15.4113 31.468C16.0835 31.5212 16.0088 32.2926 17.1292 31.734C17.9508 31.335 18.3989 30.67 19.5441 30.537C19.9673 30.4838 21.7101 30.5636 21.9093 30.9094C22.1084 31.2552 22.3823 31.7606 22.3574 31.3084C22.3325 30.9094 22.2827 30.4838 22.7059 30.8562C22.9549 31.069 23.2039 31.3616 23.5275 31.2818C24.0254 31.1754 23.8761 30.7232 24.374 30.67C24.7972 30.6168 25.32 30.5902 25.6686 30.4572C25.9176 30.3508 26.2163 30.2444 26.4404 30.2976C26.9881 30.4306 27.3864 30.803 27.7101 30.4838C27.9591 30.2444 28.208 30.1114 28.5566 30.4306C28.7308 30.5902 28.9798 30.8296 29.0296 30.7232C29.1541 30.5104 29.1043 30.537 29.3781 30.537C30.0503 30.537 30.7225 30.537 31.3947 30.5104C32.291 30.5104 31.8927 30.2444 32.5151 30.5104C32.5898 30.4838 32.9134 30.537 32.9881 30.5104C33.2371 30.4306 33.013 30.4572 32.8387 30.271C32.8138 30.2444 32.4404 30.1912 32.3906 30.138C31.7682 30.005 31.1458 29.9518 30.7723 30.0316C30.4238 30.1114 30.1499 30.1114 29.8761 29.4464C29.7018 29.0208 29.4279 28.542 28.93 28.8612C28.7308 28.9942 28.7059 28.9942 28.3574 28.8346C27.7848 28.5154 28.0835 28.7814 27.6105 28.8346C27.3864 28.8612 27.1873 28.7548 26.9383 28.6484C26.1914 28.3292 26.3657 29.1006 25.9922 29.473C25.6188 29.6592 24.7723 29.8188 24.6976 29.1272C24.6478 28.675 24.7972 28.7548 24.1748 28.6218C23.3532 28.4622 22.93 28.3824 21.8844 28.542C20.3657 29.1006 18.8719 28.5952 18.847 26.4672C18.847 25.5628 18.7972 23.1954 18.7972 22.2909C18.7723 21.4397 18.7972 20.5885 18.7972 19.7639ZM22.5317 29.1538C22.6561 29.207 24.0254 29.6592 24.0503 29.6592C24.374 29.7124 24.2495 29.872 24.0005 29.9518C23.8761 29.9784 23.6271 29.9784 23.4279 30.005C23.2288 30.005 23.1043 29.9252 22.9798 29.8454C22.8802 29.7656 22.5317 29.5794 22.3325 29.4996C21.9093 29.2602 22.0835 28.9942 22.5317 29.1538ZM17.2537 16.5453C16.9798 17.0507 16.9798 17.1305 17.2039 17.4231C17.4777 17.7689 17.403 18.3275 16.9549 17.7423C16.8055 17.5295 16.457 17.2103 16.2827 16.9177C16.0586 16.5719 16.1333 16.5187 16.3574 16.4123C16.5815 16.3059 16.6312 16.0931 16.7806 15.8803C17.1043 15.2951 17.7516 15.5611 17.2537 16.5453ZM18.9964 15.5345C19.6188 14.5503 19.8678 15.2419 19.8678 16.0665C19.8429 16.9443 19.8927 16.8911 19.4943 17.3699C19.1458 17.7955 18.8719 17.5827 18.6478 17.2635C18.4238 16.9443 18.2744 16.5985 18.4238 16.3059C18.4985 16.1729 18.847 15.7473 18.9964 15.5345ZM31.3449 14.8163C31.4694 14.9227 31.4445 14.9493 31.3449 15.0557C31.2703 15.1355 31.2951 15.2153 31.3698 15.2951C31.5192 15.5079 31.4445 15.8537 31.3698 16.1729C31.2205 16.7847 30.5483 16.1995 30.1748 15.8271C29.7765 15.4015 29.7765 15.5345 29.7267 15.0823C29.7018 14.7365 29.9756 14.8429 30.2246 15.0823C30.4985 15.3749 30.4238 15.4813 30.5981 15.0557C30.7225 14.8163 31.096 14.6301 31.3449 14.8163ZM24.1748 13.4065C23.6271 13.1139 23.5026 13.3001 23.0545 13.4065C22.6312 13.5129 22.6064 13.2203 22.7059 12.8745C22.8304 12.3691 23.0047 12.2095 23.3034 12.0499C23.8263 11.7573 23.8014 11.7573 23.8263 12.1829C23.8512 12.8479 24.2993 12.8213 24.5483 12.5819C24.8968 12.2893 24.8719 12.2095 25.0213 11.7839C25.32 10.9593 26.1665 11.2253 25.8678 11.7839C25.6686 12.1563 25.7184 12.1829 25.9176 12.3957C26.3906 12.8479 26.1914 12.1297 26.764 12.6617C27.1873 13.0341 26.6644 13.1671 26.3408 13.3001C26.042 13.4331 26.042 13.4597 25.9673 13.6725C25.8678 13.9385 25.7931 13.8587 25.6188 13.7257C25.4196 13.5661 25.32 13.7257 25.1707 13.9385C24.9964 14.1779 24.623 13.8321 24.3491 13.5661C24.2993 13.5129 24.2246 13.4331 24.1748 13.4065ZM22.457 8.24606C22.7059 8.51206 23.0794 8.51206 23.403 8.51206C23.6271 8.51206 23.6769 8.48546 23.4528 8.67166C23.2039 8.88446 23.4528 9.09726 23.7018 9.25687C24.2246 9.57607 24.0254 9.89527 23.8263 10.3741C23.5524 11.0125 23.403 11.0125 22.8553 10.9859C22.208 10.9859 22.2827 10.9327 22.1582 10.3741C22.0088 9.73567 21.7101 10.0017 21.7101 9.36327C21.7101 8.91106 21.9093 7.66086 22.457 8.24606ZM6.64788 15.9867C6.89685 16.3591 6.84705 16.2793 6.79726 16.7315C6.77237 17.1305 6.79726 17.5295 6.5234 17.2901C6.37403 17.1571 6.14996 16.9177 6.05037 16.7581C5.8512 16.4123 5.82631 16.2261 6.00058 15.9867C6.27444 15.6675 6.42382 15.7207 6.64788 15.9867ZM6.22465 12.7415C6.22465 13.2469 6.22465 13.2469 6.00058 13.4597C5.82631 13.6193 5.72672 13.6991 5.55245 13.7789C5.35328 13.8853 5.32838 13.8055 5.25369 13.6193C5.15411 13.3533 5.15411 13.1405 5.12921 12.9011C5.12921 12.6883 5.12921 12.6883 5.25369 12.6085C5.35328 12.5287 5.32838 12.3691 5.32838 12.2361C5.30349 12.0499 5.35328 12.0233 5.42797 11.9169C5.60224 11.7573 5.72672 11.8637 5.8512 11.9701C6.27444 12.3957 6.22465 12.0765 6.22465 12.7415ZM13.569 12.6351C13.0462 13.1139 12.5732 12.9277 12.3989 12.2893C12.2246 11.5179 12.8221 11.8637 12.9715 11.3849C13.2454 10.6135 12.1997 10.2677 13.6188 10.2943C14.291 10.3209 14.8138 10.7997 14.3408 11.4913C13.8429 12.2095 14.8636 12.1297 14.3906 12.6085C13.9673 13.0873 14.2661 11.9967 13.569 12.6351ZM10.4072 5.87864C10.208 5.39984 10.5317 5.34664 10.1831 4.94764C10.1582 4.92104 10.1333 4.89444 10.1084 4.86784C9.93419 4.41564 9.83461 4.38904 10.1831 4.41564C10.8055 4.46884 10.6064 4.65504 10.8304 4.94764C11.0794 5.24024 11.0545 4.97424 11.3034 5.37324C11.5524 5.82544 11.4528 5.98504 11.1292 5.98504C10.5068 5.93184 10.7059 6.62345 10.4072 5.87864Z" />
</svg>
