<svg width="16" height="16" viewBox="0 0 16 16" xmlns="http://www.w3.org/2000/svg">
<path d="M6.4395 12.8735C7.8696 12.8735 9.2588 12.3964 10.387 11.5176L14.6436 15.7741C14.9615 16.0812 15.4682 16.0724 15.7753 15.7544C16.0749 15.4442 16.0749 14.9525 15.7753 14.6424L11.5188 10.3858C13.6994 7.57881 13.1916 3.53555 10.3846 1.35494C7.57756 -0.825664 3.53433 -0.317876 1.35372 2.48915C-0.826884 5.29618 -0.319097 9.33944 2.48793 11.52C3.61801 12.398 5.00846 12.8742 6.4395 12.8735ZM3.01943 3.01819C4.9083 1.12928 7.97076 1.12925 9.85967 3.01812C11.7486 4.90699 11.7486 7.96945 9.85974 9.85836C7.97087 11.7473 4.90841 11.7473 3.0195 9.85843C3.01947 9.85839 3.01947 9.85839 3.01943 9.85836C1.13056 7.98325 1.11943 4.93195 2.99454 3.04308C3.00282 3.03476 3.01111 3.02648 3.01943 3.01819Z" />
</svg>
