<svg width="16" height="16" viewBox="0 0 16 16" xmlns="http://www.w3.org/2000/svg">
<path d="M3.83592 10.5843C4.35864 10.0682 5.01121 10.0682 5.5306 10.5843C5.92681 10.9772 6.32301 11.3701 6.71256 11.7696C6.8191 11.8795 6.909 11.9028 7.03885 11.8295C7.29521 11.6897 7.56823 11.5765 7.81461 11.4233C8.96327 10.7008 9.92548 9.77193 10.7778 8.72648C11.2007 8.20709 11.5769 7.65107 11.8399 7.02513C11.8932 6.89861 11.8832 6.81538 11.78 6.71216C11.3838 6.32928 10.9976 5.9364 10.608 5.54353C10.0653 4.9975 10.0653 4.35824 10.6113 3.80888C10.921 3.49592 11.2306 3.18961 11.5403 2.87664C11.8599 2.55701 12.1762 2.23405 12.4991 1.91776C13.0219 1.40835 13.6744 1.40835 14.1938 1.92109C14.5934 2.31396 14.9763 2.71682 15.3824 3.10304C15.7587 3.45929 15.9485 3.89545 15.9884 4.40486C16.0517 5.23389 15.8486 6.01631 15.5622 6.77875C14.9763 8.35691 14.084 9.75861 13.0019 11.0438C11.5403 12.7817 9.79563 14.1568 7.75468 15.149C6.83575 15.5951 5.88353 15.9381 4.84807 15.9947C4.13557 16.0346 3.51629 15.8548 3.0202 15.2988C2.6806 14.9193 2.29771 14.573 1.93813 14.2101C1.40542 13.6707 1.40209 13.0181 1.93147 12.4854C2.56407 11.8495 3.19999 11.2169 3.83592 10.5843Z" />
<path d="M4.47193 7.93075L3.24337 7.72099C3.43647 6.59231 3.96919 5.57017 4.77824 4.75779C5.63391 3.90212 6.71598 3.36275 7.90792 3.19627L8.08105 4.4315C7.1588 4.56135 6.31978 4.97753 5.65722 5.64009C5.03128 6.26603 4.62176 7.05843 4.47193 7.93075Z" />
<path d="M2.5509 2.59031C3.96924 1.17197 5.76382 0.276344 7.74484 0L7.91797 1.23523C6.20663 1.47495 4.65511 2.25071 3.42987 3.47262C2.26789 4.63459 1.50545 6.10288 1.22911 7.71766L0.000539303 7.50791C0.323496 5.63676 1.2058 3.93874 2.5509 2.59031Z" />
</svg>
