<svg width="18" height="18" viewBox="0 0 18 18" xmlns="http://www.w3.org/2000/svg">
<path d="M14.8432 1.21528L13.7475 2.31089L13.2803 0.966974L13.9376 0.309692L14.7556 1.12767L14.8432 1.21528Z" fill="#4D4D4D"/>
<path d="M15.9665 1.37474L10.3545 6.98715L9.71289 6.34555L12.0388 4.01961L13.7476 2.31088L14.8432 1.21527L15.3253 0.733521L15.9665 1.37474Z" fill="#4D4D4D"/>
<path d="M5.96982 14.0501L6.84524 17.0734L5.39308 17.6902L4.57963 15.7605C4.45033 15.4535 4.21155 15.2056 3.90913 15.0651L3.26465 14.766L4.97542 13.0556L5.96982 14.0501Z" fill="#4D4D4D"/>
<path d="M10.3541 6.98717L8.55035 8.79051L7.25105 7.49121L7.22461 7.46474L9.02791 5.66101L9.71248 6.34557L10.3541 6.98717Z" fill="#4D4D4D"/>
<path d="M13.6544 11.0293L14.0589 13.3647C11.5061 14.0059 8.68731 13.3296 6.69434 11.3366L8.36545 9.66589C9.7974 11.0978 11.8366 11.5523 13.6544 11.0293Z" fill="#4D4D4D"/>
<path d="M8.55124 8.7905L8.36572 9.66592L6.69461 11.3366L5.80638 12.2253L4.97596 13.0557L3.26518 14.766L2.0332 13.5341V12.6566L7.2255 7.46472L7.25194 7.49119L8.55124 8.7905Z" fill="#4D4D4D"/>
<path d="M16.1864 1.594C16.2445 1.53592 16.2771 1.4571 16.2771 1.37491C16.2771 1.29271 16.2445 1.21389 16.1864 1.15581L15.5449 0.514354C15.4238 0.393346 15.2276 0.393346 15.1067 0.514354L14.8438 0.777217L14.1573 0.0907559C14.0363 -0.0302519 13.8401 -0.0302519 13.7191 0.0907559L13.0619 0.748002C12.9779 0.83199 12.9493 0.956689 12.9883 1.06887L13.3919 2.22913L11.9534 3.66766L10.6399 3.72665C10.5626 3.73013 10.4894 3.76237 10.4347 3.81707L1.81441 12.4374C1.75629 12.4955 1.72363 12.5743 1.72363 12.6565V13.5341C1.72363 13.6162 1.75626 13.6951 1.81441 13.7532L3.04649 14.9853C3.07296 15.0117 3.10313 15.0321 3.13523 15.047L3.13509 15.0472L3.7795 15.3464C4.01227 15.4545 4.19533 15.6442 4.295 15.8807L5.10837 17.8105C5.14036 17.8864 5.20122 17.9464 5.27747 17.9773C5.31481 17.9925 5.35436 18 5.39391 18C5.43515 18 5.47632 17.9918 5.51506 17.9753L6.96712 17.3587C7.11143 17.2974 7.18723 17.138 7.1436 16.9873L6.31926 14.1397L7.82141 12.6375C8.51888 13.0848 9.28318 13.4242 10.0877 13.6378C10.7663 13.818 11.4655 13.9082 12.1648 13.9082C12.8272 13.9082 13.4898 13.8273 14.135 13.6653C14.2923 13.6258 14.3925 13.4717 14.3648 13.3119L13.9603 10.9763C13.9452 10.8895 13.894 10.8133 13.8194 10.7666C13.7448 10.7199 13.6538 10.7071 13.5693 10.7314C11.8507 11.2261 10.0026 10.7779 8.70457 9.56238L8.83564 8.94475L16.1864 1.594ZM15.3258 1.1716L15.5291 1.37487L10.3549 6.54896L10.1517 6.34569L15.3258 1.1716ZM13.6375 1.04883L13.9382 0.748072L14.4056 1.21544L13.8787 1.74236L13.6375 1.04883ZM10.7878 4.3403L11.3039 4.31713L9.71352 5.90753L9.46708 5.66109L10.7878 4.3403ZM9.02889 6.09928L9.9168 6.98715L8.55154 8.3524L7.66363 7.4645L9.02889 6.09928ZM2.34333 13.4058V12.7849L7.22541 7.90279L8.21348 8.89086L8.08171 9.51175L3.26559 14.3279L2.34333 13.4058ZM5.97079 13.6118L5.41441 13.0555L5.8065 12.6634L6.36289 13.2198L5.97079 13.6118ZM5.55876 17.2835L4.866 15.64C4.70639 15.2613 4.41319 14.9574 4.04043 14.7843L3.7981 14.6718L4.97618 13.4938L5.69527 14.2128L6.47187 16.8958L5.55876 17.2835ZM6.80111 12.7816L6.24473 12.2252L6.69968 11.7702C6.89339 11.9495 7.09544 12.1189 7.305 12.2776L6.80111 12.7816ZM13.4068 11.4122L13.7042 13.1288C12.5637 13.3687 11.3744 13.3384 10.2467 13.0389C9.08915 12.7315 8.02043 12.1439 7.13777 11.3321L8.37186 10.0981C9.73806 11.323 11.6157 11.8124 13.4068 11.4122Z" fill="currentColor"/>
<path d="M3.74637 12.8978C3.82565 12.8978 3.90496 12.8676 3.96547 12.807L4.7047 12.0678C4.82571 11.9468 4.82571 11.7506 4.7047 11.6296C4.58369 11.5086 4.38748 11.5086 4.26651 11.6296L3.52728 12.3688C3.40627 12.4898 3.40627 12.686 3.52728 12.807C3.58782 12.8676 3.6671 12.8978 3.74637 12.8978Z" fill="currentColor"/>
</svg>
