<svg width="23" height="16" viewBox="0 0 23 16" xmlns="http://www.w3.org/2000/svg">
<path d="M22.328 7.68L20.56 3.68C20.4981 3.53814 20.3964 3.41729 20.2672 3.33209C20.138 3.24689 19.9868 3.20101 19.832 3.2H15.552L15.808 0.888C15.8206 0.775765 15.8093 0.662134 15.7749 0.554583C15.7404 0.447033 15.6835 0.348 15.608 0.264C15.5332 0.181126 15.4419 0.114823 15.34 0.0693561C15.238 0.023889 15.1277 0.000263863 15.016 0H4.00005C3.78787 0 3.58439 0.0842856 3.43436 0.234315C3.28433 0.384344 3.20005 0.587826 3.20005 0.8C3.20005 1.01217 3.28433 1.21566 3.43436 1.36568C3.58439 1.51571 3.78787 1.6 4.00005 1.6H8.00005C8.21222 1.6 8.4157 1.68428 8.56573 1.83431C8.71576 1.98434 8.80005 2.18783 8.80005 2.4C8.80005 2.61217 8.71576 2.81565 8.56573 2.96568C8.4157 3.11571 8.21222 3.2 8.00005 3.2H2.40005C2.18788 3.2 1.98439 3.28428 1.83436 3.43431C1.68433 3.58434 1.60005 3.78782 1.60005 4C1.60005 4.21217 1.68433 4.41565 1.83436 4.56568C1.98439 4.71571 2.18788 4.8 2.40005 4.8H10.4C10.6122 4.8 10.8157 4.88428 10.9657 5.03431C11.1158 5.18434 11.2 5.38782 11.2 5.6C11.2 5.81217 11.1158 6.01565 10.9657 6.16568C10.8157 6.31571 10.6122 6.4 10.4 6.4H4.80005C4.58787 6.4 4.38439 6.48428 4.23436 6.63431C4.08433 6.78434 4.00005 6.98782 4.00005 7.2C4.00005 7.41217 4.08433 7.61565 4.23436 7.76568C4.38439 7.91571 4.58787 8 4.80005 8H8.00005C8.21222 8 8.4157 8.08428 8.56573 8.23431C8.71576 8.38434 8.80005 8.58782 8.80005 8.8C8.80005 9.01217 8.71576 9.21565 8.56573 9.36568C8.4157 9.51571 8.21222 9.59999 8.00005 9.59999H1.60005C1.38788 9.59999 1.18439 9.68428 1.03436 9.83431C0.884334 9.98434 0.800049 10.1878 0.800049 10.4C0.800049 10.6122 0.884334 10.8157 1.03436 10.9657C1.18439 11.1157 1.38788 11.2 1.60005 11.2H3.20005C3.41222 11.2 3.6157 11.2843 3.76573 11.4343C3.91576 11.5843 4.00005 11.7878 4.00005 12C4.00005 12.2122 3.91576 12.4157 3.76573 12.5657C3.6157 12.7157 3.41222 12.8 3.20005 12.8H2.40005C2.18788 12.8 1.98439 12.8843 1.83436 13.0343C1.68433 13.1843 1.60005 13.3878 1.60005 13.6C1.60005 13.8122 1.68433 14.0156 1.83436 14.1657C1.98439 14.3157 2.18788 14.4 2.40005 14.4H4.68005C4.76643 14.7374 4.93085 15.0498 5.16005 15.312C5.35427 15.5291 5.59227 15.7027 5.85839 15.8213C6.1245 15.9399 6.41271 16.0008 6.70405 16C7.19705 15.9859 7.67491 15.8265 8.07768 15.5419C8.48045 15.2573 8.79019 14.86 8.96805 14.4H15.08C15.1664 14.7374 15.3308 15.0498 15.56 15.312C15.7543 15.5291 15.9923 15.7027 16.2584 15.8213C16.5245 15.9399 16.8127 16.0008 17.104 16C17.597 15.9859 18.0749 15.8265 18.4777 15.5419C18.8804 15.2573 19.1902 14.86 19.368 14.4H20.968C21.1658 14.4012 21.357 14.3291 21.5048 14.1976C21.6525 14.0661 21.7463 13.8846 21.768 13.688L22.384 8.088C22.406 7.94945 22.3865 7.80751 22.328 7.68ZM6.70405 14.4C6.63771 14.4029 6.57158 14.3907 6.51062 14.3643C6.44966 14.338 6.39545 14.2982 6.35205 14.248C6.28925 14.1703 6.2433 14.0804 6.21713 13.984C6.19097 13.8876 6.18515 13.7868 6.20005 13.688C6.22048 13.4634 6.31746 13.2526 6.47474 13.0909C6.63203 12.9293 6.84007 12.8266 7.06405 12.8C7.13039 12.7971 7.19651 12.8093 7.25747 12.8356C7.31843 12.862 7.37265 12.9017 7.41605 12.952C7.47885 13.0297 7.52479 13.1196 7.55096 13.216C7.57713 13.3124 7.58295 13.4132 7.56805 13.512C7.54761 13.7366 7.45064 13.9474 7.29335 14.109C7.13607 14.2707 6.92802 14.3734 6.70405 14.4ZM17.104 14.4C17.0377 14.4029 16.9716 14.3907 16.9106 14.3643C16.8497 14.338 16.7954 14.2982 16.752 14.248C16.6892 14.1703 16.6433 14.0804 16.6171 13.984C16.591 13.8876 16.5851 13.7868 16.6 13.688C16.6205 13.4634 16.7175 13.2526 16.8747 13.0909C17.032 12.9293 17.2401 12.8266 17.464 12.8C17.5304 12.7971 17.5965 12.8093 17.6575 12.8356C17.7184 12.862 17.7726 12.9017 17.816 12.952C17.8788 13.0297 17.9248 13.1196 17.951 13.216C17.9771 13.3124 17.9829 13.4132 17.968 13.512C17.9476 13.7366 17.8506 13.9474 17.6933 14.109C17.5361 14.2707 17.328 14.3734 17.104 14.4ZM20.704 8.8H17.168C17.0564 8.79973 16.9461 8.77611 16.8441 8.73064C16.7421 8.68517 16.6508 8.61887 16.576 8.536C16.5005 8.452 16.4437 8.35296 16.4092 8.24541C16.3748 8.13786 16.3634 8.02423 16.376 7.912L16.64 5.512C16.6636 5.31687 16.7582 5.13725 16.9058 5.00741C17.0533 4.87756 17.2435 4.80658 17.44 4.808H19.304L20.8 8.128L20.704 8.8Z" />
<path d="M1.6 7.99999C1.81217 7.99999 2.01566 7.91571 2.16568 7.76568C2.31571 7.61565 2.4 7.41217 2.4 7.19999C2.4 6.98782 2.31571 6.78434 2.16568 6.63431C2.01566 6.48428 1.81217 6.39999 1.6 6.39999H0.8C0.587827 6.39999 0.384343 6.48428 0.234314 6.63431C0.0842854 6.78434 0 6.98782 0 7.19999C0 7.41217 0.0842854 7.61565 0.234314 7.76568C0.384343 7.91571 0.587827 7.99999 0.8 7.99999H1.6Z" fill="black"/>
</svg>
