<svg width="24" height="24" viewBox="0 0 24 24" xmlns="http://www.w3.org/2000/svg">
<path fill-rule="evenodd" clip-rule="evenodd" d="M18.7064 16.3069L14.2128 14.8113C13.634 14.6282 13.2596 14.1093 13.3277 13.5905C14.4851 12.8274 15.9149 11.4845 15.9149 9.92789V8.09659C15.9149 8.09659 15.5745 7.08938 15.234 6.87573C14.8936 6.66208 14.3149 6.11269 13.8723 5.65487C13.4298 5.19705 13.2596 5.136 13.1915 4.73922C13.1234 4.34244 12.2723 3.73201 12.1702 4.12879C12.0681 4.52557 11.217 4.67818 10.4681 5.04444C9.71915 5.4107 9.34468 5.44122 9.10638 5.96009C8.86808 6.47895 8.08511 7.85242 8.08511 9.01224V9.92789C8.08511 11.4845 9.51489 12.8274 10.6383 13.56C10.6723 14.1093 10.2638 14.5977 9.68511 14.7503L9.44681 14.8113L5.22553 16.5816C4.68085 16.8258 4.17021 17.3141 4 17.8635V20H20V17.8635C19.7957 17.3141 19.3191 16.5205 18.7064 16.3069Z" />
</svg>
