<svg width="20" height="20" viewBox="0 0 20 20" xmlns="http://www.w3.org/2000/svg">
<path fill-rule="evenodd" clip-rule="evenodd" d="M9.9975 0H10.0025C15.5162 0 20 4.48625 20 10C20 15.5138 15.5162 20 10.0025 20C7.96875 20 6.0825 19.395 4.50125 18.3475L0.6575 19.5763L1.90375 15.8612C0.705 14.215 0 12.1875 0 10C0 4.485 4.48375 0 9.9975 0ZM13.8587 15.5325C14.6224 15.3675 15.5799 14.8025 15.8212 14.1212C16.0624 13.4387 16.0624 12.8575 15.9924 12.7337C15.9359 12.6355 15.8023 12.5712 15.6027 12.4751C15.5508 12.4501 15.4944 12.4229 15.4337 12.3925C15.1399 12.2462 13.7112 11.54 13.4412 11.4462C13.1762 11.3462 12.9237 11.3812 12.7237 11.6637C12.6856 11.717 12.6477 11.7704 12.61 11.8234C12.3687 12.1628 12.1359 12.4901 11.9424 12.6987C11.7662 12.8862 11.4787 12.91 11.2374 12.81C11.2111 12.799 11.181 12.7868 11.1472 12.7732C10.7653 12.6189 9.91801 12.2768 8.89244 11.3637C8.02744 10.5937 7.43994 9.63498 7.26994 9.34748C7.10303 9.05907 7.247 8.88995 7.38006 8.73365C7.38253 8.73076 7.38499 8.72787 7.38744 8.72498C7.47323 8.61884 7.55648 8.53045 7.64015 8.44162C7.70033 8.37773 7.76073 8.31361 7.82244 8.24248C7.83161 8.23192 7.84052 8.22167 7.8492 8.21168C7.98024 8.06102 8.05827 7.9713 8.14619 7.78373C8.24619 7.58998 8.17494 7.38998 8.10369 7.24248C8.05467 7.13918 7.75184 6.40443 7.49187 5.77368C7.38063 5.50378 7.27724 5.25292 7.20494 5.07873C7.01119 4.61498 6.86369 4.59748 6.56994 4.58498C6.56095 4.58453 6.55186 4.58407 6.54268 4.58361C6.44982 4.57891 6.34756 4.57373 6.23494 4.57373C5.85244 4.57373 5.45369 4.68623 5.21244 4.93248C5.20401 4.94109 5.19522 4.95003 5.1861 4.9593C4.87747 5.27319 4.18994 5.97241 4.18994 7.36623C4.18994 8.76274 5.18081 10.1143 5.36416 10.3643C5.36921 10.3712 5.37365 10.3773 5.37744 10.3825C5.38847 10.397 5.40927 10.4271 5.43953 10.4709C5.81388 11.013 7.63724 13.6535 10.3562 14.78C12.6537 15.7325 13.3362 15.6437 13.8587 15.5325Z" fill="currentColor"/>
</svg>
